<svg xmlns="http://www.w3.org/2000/svg" xmlns:xlink="http://www.w3.org/1999/xlink" version="1.1" viewBox="0 0 2480 1748" style="background: #ffffff"><defs><style>@import url(https://fonts.googleapis.com/css?family=Open+Sans:400,700);</style></defs><defs joint-selector="defs"></defs><g  joint-selector="layers" transform="matrix(1,0,0,1,0,0)"><g ></g><g ><g   id="j_29"  transform="translate(20,1710.5)"><g id="v-288"><text  id="v-289" font-size="22px" xml:space="preserve" y="0.8em" font-weight="normal" text-anchor="start" fill="#aaaaaa" pointer-events="none" display="block" font-family="Open Sans"><tspan  dy="0" display="block">Tuesday, April 9, 2024 at 10:00 PM Central European Summer Time</tspan></text></g></g><g   id="j_28"  transform="translate(20,1665.5)"><g id="v-286"><text  id="v-287" font-size="36px" xml:space="preserve" y="0.8em" font-weight="normal" text-anchor="start" fill="#000000" pointer-events="none" display="block" font-family="Open Sans"><tspan  dy="0" display="block">[Container] EPOS System</tspan></text></g></g><g   id="j_30"  transform="translate(90,-5)" style=""><g  id="v-293" style="opacity: 1;"><rect  x="0" y="160" width="400" height="240" rx="70" id="v-295" stroke="#1a0c2f" stroke-width="2" pointer-events="visiblePainted" fill="#1d0d34" style="fill: rgb(29, 13, 52); stroke: rgb(26, 12, 47);"></rect><circle  cx="200" cy="88.88888888888889" r="88.88888888888889" id="v-294" stroke="#1a0c2f" stroke-width="2" pointer-events="visiblePainted" fill="#1d0d34" style="fill: rgb(29, 13, 52); stroke: rgb(26, 12, 47);"></circle><line  x1="80" y1="266.6666666666667" x2="80" y2="400" id="v-301" stroke="#1a0c2f" stroke-width="2" style="stroke: rgb(26, 12, 47);"></line><line  x1="320" y1="266.6666666666667" x2="320" y2="400" id="v-302" stroke="#1a0c2f" stroke-width="2" style="stroke: rgb(26, 12, 47);"></line><text  id="v-296" font-size="34" xml:space="preserve" y="0.8em" font-weight="bold" text-anchor="middle" pointer-events="visible" font-family="Open Sans" fill="#ffffff" transform="matrix(1,0,0,1,200,243.10000610351562)" style="fill: rgb(255, 255, 255);"><tspan  dy="0">Issuer (Docent)</tspan></text><text  id="v-297" font-size="17" xml:space="preserve" y="0.8em" text-anchor="middle" font-family="Open Sans" fill="#ffffff" transform="matrix(1,0,0,1,200,285.6000061035156)" style="fill: rgb(255, 255, 255);"><tspan  dy="0">[Person]</tspan></text><text  id="v-298" font-size="24" xml:space="preserve" display="none" y="0.8em" text-anchor="middle" font-family="Open Sans" fill="#ffffff" transform="matrix(1,0,0,1,200,316.8999938964844)" style="fill: rgb(255, 255, 255);"><tspan style="fill-opacity: 0; stroke-opacity: 0;"  dy="0">-</tspan></text><g  id="v-299" font-weight="normal" text-anchor="middle" color="#ffffff" transform="matrix(1,0,0,1,197.5,326.8999938964844)" style="fill: rgb(255, 255, 255);" display="none"><g ></g><g ></g><g ></g><g ></g></g><image  id="v-300"></image></g></g><g   id="j_31"  transform="translate(1220,0)" style=""><g  id="v-306" style="opacity: 1;"><rect  x="0" y="160" width="400" height="240" rx="70" id="v-308" stroke="#1a0c2f" stroke-width="2" pointer-events="visiblePainted" fill="#1d0d34" style="fill: rgb(29, 13, 52); stroke: rgb(26, 12, 47);"></rect><circle  cx="200" cy="88.88888888888889" r="88.88888888888889" id="v-307" stroke="#1a0c2f" stroke-width="2" pointer-events="visiblePainted" fill="#1d0d34" style="fill: rgb(29, 13, 52); stroke: rgb(26, 12, 47);"></circle><line  x1="80" y1="266.6666666666667" x2="80" y2="400" id="v-314" stroke="#1a0c2f" stroke-width="2" style="stroke: rgb(26, 12, 47);"></line><line  x1="320" y1="266.6666666666667" x2="320" y2="400" id="v-315" stroke="#1a0c2f" stroke-width="2" style="stroke: rgb(26, 12, 47);"></line><text  id="v-309" font-size="34" xml:space="preserve" y="0.8em" font-weight="bold" text-anchor="middle" pointer-events="visible" font-family="Open Sans" fill="#ffffff" transform="matrix(1,0,0,1,200,243.10000610351562)" style="fill: rgb(255, 255, 255);"><tspan  dy="0">Holder (Student)</tspan></text><text  id="v-310" font-size="17" xml:space="preserve" y="0.8em" text-anchor="middle" font-family="Open Sans" fill="#ffffff" transform="matrix(1,0,0,1,200,285.6000061035156)" style="fill: rgb(255, 255, 255);"><tspan  dy="0">[Person]</tspan></text><text  id="v-311" font-size="24" xml:space="preserve" display="none" y="0.8em" text-anchor="middle" font-family="Open Sans" fill="#ffffff" transform="matrix(1,0,0,1,200,316.8999938964844)" style="fill: rgb(255, 255, 255);"><tspan style="fill-opacity: 0; stroke-opacity: 0;"  dy="0">-</tspan></text><g  id="v-312" font-weight="normal" text-anchor="middle" color="#ffffff" transform="matrix(1,0,0,1,197.5,326.8999938964844)" style="fill: rgb(255, 255, 255);" display="none"><g ></g><g ></g><g ></g><g ></g></g><image  id="v-313"></image></g></g><g   id="j_32"  transform="translate(1930,650)" style=""><g  id="v-316" style="opacity: 1;"><rect  id="v-317" rx="20" ry="20" stroke="#b5197a" stroke-width="2" pointer-events="visiblePainted" fill="#c91c88" width="450" height="300" style="fill: rgb(201, 28, 136); stroke: rgb(181, 25, 122);"></rect><text  id="v-318" font-size="34" xml:space="preserve" y="0.8em" font-weight="bold" text-anchor="middle" pointer-events="visible" font-family="Open Sans" fill="#ffffff" transform="matrix(1,0,0,1,225,113.0999984741211)" style="fill: rgb(255, 255, 255);"><tspan  dy="0">EBSI</tspan></text><text  id="v-319" font-size="17" xml:space="preserve" y="0.8em" text-anchor="middle" font-family="Open Sans" fill="#ffffff" transform="matrix(1,0,0,1,225,155.60000610351562)" style="fill: rgb(255, 255, 255);"><tspan  dy="0">[Software System]</tspan></text><text  id="v-320" font-size="24" xml:space="preserve" display="none" y="0.8em" text-anchor="middle" font-family="Open Sans" fill="#ffffff" transform="matrix(1,0,0,1,225,186.89999389648438)" style="fill: rgb(255, 255, 255);"><tspan style="fill-opacity: 0; stroke-opacity: 0;"  dy="0">-</tspan></text><g  id="v-321" color="#ffffff" transform="matrix(1,0,0,1,222.5,196.89999389648438)" style="fill: rgb(255, 255, 255);" display="none"><g ></g><g ></g><g ></g><g ></g></g><image  id="v-322"></image></g></g><g   id="j_34"  transform="translate(70,440)" style=""><g id="v-333"><rect  id="v-334" width="1620" height="1221" rx="0" ry="0" fill="#ffffff" stroke="#00a1d7" stroke-width="1" stroke-dasharray="20,20" pointer-events="none"></rect><text  id="v-335" font-size="24px" xml:space="preserve" y="1182" font-weight="normal" fill="#00a1d7" text-anchor="start" pointer-events="visible" font-family="Open Sans" transform="matrix(1,0,0,1,15,0)"><tspan  dy="0">EPOS System</tspan></text><text  id="v-336" font-size="17px" xml:space="preserve" y="1206" font-weight="normal" fill="#00a1d7" text-anchor="start" pointer-events="visible" font-family="Open Sans" transform="matrix(1,0,0,1,15,0)"><tspan  dy="0">[Software System]</tspan></text><image  id="v-337" pointer-events="visible"></image></g></g><g   id="j_33"  transform="translate(90,460)" style=""><g  id="v-326" style="opacity: 1;"><rect  id="v-327" rx="20" ry="20" stroke="#0495c7" stroke-width="2" pointer-events="visiblePainted" fill="#04a6dd" width="450" height="300" style="fill: rgb(4, 166, 221); stroke: rgb(4, 149, 199);"></rect><text  id="v-328" font-size="34" xml:space="preserve" y="0.8em" font-weight="bold" text-anchor="middle" pointer-events="visible" font-family="Open Sans" fill="#000000" transform="matrix(1,0,0,1,225,113.0999984741211)" style="fill: rgb(0, 0, 0);"><tspan  dy="0">Education Web Portal</tspan></text><text  id="v-329" font-size="17" xml:space="preserve" y="0.8em" text-anchor="middle" font-family="Open Sans" fill="#000000" transform="matrix(1,0,0,1,225,155.60000610351562)" style="fill: rgb(0, 0, 0);"><tspan  dy="0">[Container]</tspan></text><text  id="v-330" font-size="24" xml:space="preserve" display="none" y="0.8em" text-anchor="middle" font-family="Open Sans" fill="#000000" transform="matrix(1,0,0,1,225,186.89999389648438)" style="fill: rgb(0, 0, 0);"><tspan style="fill-opacity: 0; stroke-opacity: 0;"  dy="0">-</tspan></text><g  id="v-331" color="#000000" transform="matrix(1,0,0,1,222.5,196.89999389648438)" style="fill: rgb(0, 0, 0);" display="none"><g ></g><g ></g><g ></g><g ></g></g><image  id="v-332"></image></g></g><g   id="j_35"  transform="translate(95,850)" style=""><g  id="v-341" style="opacity: 1;"><rect  id="v-342" rx="20" ry="20" stroke="#0495c7" stroke-width="2" pointer-events="visiblePainted" fill="#04a6dd" width="450" height="300" style="fill: rgb(4, 166, 221); stroke: rgb(4, 149, 199);"></rect><text  id="v-343" font-size="34" xml:space="preserve" y="0.8em" font-weight="bold" text-anchor="middle" pointer-events="visible" font-family="Open Sans" fill="#000000" transform="matrix(1,0,0,1,225,113.0999984741211)" style="fill: rgb(0, 0, 0);"><tspan  dy="0">Education Web Portal API</tspan></text><text  id="v-344" font-size="17" xml:space="preserve" y="0.8em" text-anchor="middle" font-family="Open Sans" fill="#000000" transform="matrix(1,0,0,1,225,155.60000610351562)" style="fill: rgb(0, 0, 0);"><tspan  dy="0">[Container]</tspan></text><text  id="v-345" font-size="24" xml:space="preserve" display="none" y="0.8em" text-anchor="middle" font-family="Open Sans" fill="#000000" transform="matrix(1,0,0,1,225,186.89999389648438)" style="fill: rgb(0, 0, 0);"><tspan style="fill-opacity: 0; stroke-opacity: 0;"  dy="0">-</tspan></text><g  id="v-346" color="#000000" transform="matrix(1,0,0,1,222.5,196.89999389648438)" style="fill: rgb(0, 0, 0);" display="none"><g ></g><g ></g><g ></g><g ></g></g><image  id="v-347"></image></g></g><g   id="j_36"  transform="translate(110,1270)" style=""><g  id="v-348" style="opacity: 1;"><path  d="M 0,30 a 225,30 0,0,0 450 0 a 225,30 0,0,0 -450 0 l 0,240 a 225,30 0,0,0 450 0 l 0,-240" id="v-349" stroke="#dcdcdc" stroke-width="2" pointer-events="visiblePainted" fill="#f4f4f4" style="fill: rgb(244, 244, 244); stroke: rgb(220, 220, 220);"></path><rect  id="v-350" stroke-width="0" pointer-events="visiblePainted" fill="none" stroke="none" width="450" height="270" x="0" y="30"></rect><text  id="v-351" font-size="34" xml:space="preserve" y="0.8em" font-weight="bold" text-anchor="middle" pointer-events="visible" font-family="Open Sans" fill="#000000" transform="matrix(1,0,0,1,225,143.10000610351562)" style="fill: rgb(0, 0, 0);"><tspan  dy="0">Database</tspan></text><text  id="v-352" font-size="17" xml:space="preserve" y="0.8em" text-anchor="middle" font-family="Open Sans" fill="#000000" transform="matrix(1,0,0,1,225,185.60000610351562)" style="fill: rgb(0, 0, 0);"><tspan  dy="0">[Container]</tspan></text><text  id="v-353" font-size="24" xml:space="preserve" display="none" y="0.8em" text-anchor="middle" font-family="Open Sans" fill="#000000" transform="matrix(1,0,0,1,225,216.89999389648438)" style="fill: rgb(0, 0, 0);"><tspan style="fill-opacity: 0; stroke-opacity: 0;"  dy="0">-</tspan></text><g  id="v-354" font-weight="normal" text-anchor="middle" color="#000000" transform="matrix(1,0,0,1,222.5,226.89999389648438)" style="fill: rgb(0, 0, 0);" display="none"><g ></g><g ></g><g ></g><g ></g></g><image  id="v-355"></image></g></g><g   id="j_37"  transform="translate(1220,840)" style=""><g  id="v-356" style="opacity: 1;"><rect  id="v-357" rx="20" ry="20" stroke="#0a769a" stroke-width="2" pointer-events="visiblePainted" fill="#0b83ab" width="450" height="300" style="fill: rgb(11, 131, 171); stroke: rgb(10, 118, 154);"></rect><text  id="v-358" font-size="34" xml:space="preserve" y="0.8em" font-weight="bold" text-anchor="middle" pointer-events="visible" font-family="Open Sans" fill="#000000" transform="matrix(1,0,0,1,225,113.0999984741211)" style="fill: rgb(0, 0, 0);"><tspan  dy="0">Issuer Service</tspan></text><text  id="v-359" font-size="17" xml:space="preserve" y="0.8em" text-anchor="middle" font-family="Open Sans" fill="#000000" transform="matrix(1,0,0,1,225,155.60000610351562)" style="fill: rgb(0, 0, 0);"><tspan  dy="0">[Container]</tspan></text><text  id="v-360" font-size="24" xml:space="preserve" display="none" y="0.8em" text-anchor="middle" font-family="Open Sans" fill="#000000" transform="matrix(1,0,0,1,225,186.89999389648438)" style="fill: rgb(0, 0, 0);"><tspan style="fill-opacity: 0; stroke-opacity: 0;"  dy="0">-</tspan></text><g  id="v-361" color="#000000" transform="matrix(1,0,0,1,222.5,196.89999389648438)" style="fill: rgb(0, 0, 0);" display="none"><g ></g><g ></g><g ></g><g ></g></g><image  id="v-362"></image></g></g><g   id="j_38"  transform="translate(1215,475)" style=""><g  id="v-363" style="opacity: 1;"><rect  id="v-364" rx="20" ry="20" stroke="#0a769a" stroke-width="2" pointer-events="visiblePainted" fill="#0b83ab" width="450" height="300" style="fill: rgb(11, 131, 171); stroke: rgb(10, 118, 154);"></rect><text  id="v-365" font-size="34" xml:space="preserve" y="0.8em" font-weight="bold" text-anchor="middle" pointer-events="visible" font-family="Open Sans" fill="#000000" transform="matrix(1,0,0,1,225,113.0999984741211)" style="fill: rgb(0, 0, 0);"><tspan  dy="0">Wallet</tspan></text><text  id="v-366" font-size="17" xml:space="preserve" y="0.8em" text-anchor="middle" font-family="Open Sans" fill="#000000" transform="matrix(1,0,0,1,225,155.60000610351562)" style="fill: rgb(0, 0, 0);"><tspan  dy="0">[Container]</tspan></text><text  id="v-367" font-size="24" xml:space="preserve" display="none" y="0.8em" text-anchor="middle" font-family="Open Sans" fill="#000000" transform="matrix(1,0,0,1,225,186.89999389648438)" style="fill: rgb(0, 0, 0);"><tspan style="fill-opacity: 0; stroke-opacity: 0;"  dy="0">-</tspan></text><g  id="v-368" color="#000000" transform="matrix(1,0,0,1,222.5,196.89999389648438)" style="fill: rgb(0, 0, 0);" display="none"><g ></g><g ></g><g ></g><g ></g></g><image  id="v-369"></image></g></g><g   id="j_39" ><path  stroke="#707070" d="M 325 1150 L 330 1270" id="v-382" stroke-width="2" stroke-dasharray="30 30" fill="none" style="opacity: 1;"></path><path  fill="black" stroke="black" d="M 0 0 0 0" transform="matrix(0.0356440506875515,0.9993645548820496,-0.9993645548820496,0.0356440506875515,325.3599853515625,1150)"></path><path  fill="#707070" stroke="#707070" d="M 20 0 L 0 10 L 20 20 z" id="v-384" transform="matrix(-0.03564418479800224,-0.9993645548820496,0.9993645548820496,-0.03564418479800224,319.6463623046875,1270.3564453125)" style="opacity: 1;"></path><path  d="M 325 1150 L 330 1270" id="v-383" fill="none" style="cursor: default;"></path><g ><g id="v-376"  label-idx="0" cursor="move" transform="matrix(1,0,0,1,327.5,1210)" style="cursor: default; opacity: 1;"><rect joint-selector="rect" id="v-379" fill="#ffffff" rx="3" ry="3" pointer-events="none" width="177.5067138671875" height="62.15048027038574" transform="matrix(1,0,0,1,-88.80000305175781,-31.100000381469727)"></rect><text joint-selector="text" id="v-378" font-size="24px" xml:space="preserve" y="0.8em" fill="#707070" text-anchor="middle" pointer-events="none" font-family="Open Sans" font-weight="normal" transform="matrix(1,0,0,1,0,-24.200000762939453)"><tspan  dy="0">Reads from and</tspan><tspan dy="1.2em" x="0" >writes to</tspan></text></g><g id="v-377"  label-idx="1" cursor="move" transform="matrix(1,0,0,1,317.5,1252)" style="cursor: default; opacity: 1;"><rect joint-selector="rect" id="v-381" fill="#ffffff" rx="3" ry="3"  width="0" height="0" transform="matrix(1,0,0,1,0,0)" display="none"></rect><text joint-selector="text" id="v-380" fill="#000000" font-size="14" text-anchor="middle" pointer-events="none"></text></g></g><g  display="none"></g><g  id="v-386" display="none"><g  id="v-374"><path  end="source" d="M 26 0 L 0 13 L 26 26 z"></path></g><g  id="v-375"><path  end="target" d="M 26 0 L 0 13 L 26 26 z"></path></g></g><g  id="v-385" display="none"><g  id="v-373" transform="translate(326.66522178848726, 1189.965322923694) "><g  event="remove"><circle r="11"></circle><path transform="scale(.8) translate(-16, -16)" d="M24.778,21.419 19.276,15.917 24.777,10.415 21.949,7.585 16.447,13.087 10.945,7.585 8.117,10.415 13.618,15.917 8.116,21.419 10.946,24.248 16.447,18.746 21.948,24.248z"></path><title>Remove link.</title></g><g  event="link:options"><circle r="11" transform="translate(25)"></circle><path fill="white" transform="scale(.55) translate(29, -16)" d="M31.229,17.736c0.064-0.571,0.104-1.148,0.104-1.736s-0.04-1.166-0.104-1.737l-4.377-1.557c-0.218-0.716-0.504-1.401-0.851-2.05l1.993-4.192c-0.725-0.91-1.549-1.734-2.458-2.459l-4.193,1.994c-0.647-0.347-1.334-0.632-2.049-0.849l-1.558-4.378C17.165,0.708,16.588,0.667,16,0.667s-1.166,0.041-1.737,0.105L12.707,5.15c-0.716,0.217-1.401,0.502-2.05,0.849L6.464,4.005C5.554,4.73,4.73,5.554,4.005,6.464l1.994,4.192c-0.347,0.648-0.632,1.334-0.849,2.05l-4.378,1.557C0.708,14.834,0.667,15.412,0.667,16s0.041,1.165,0.105,1.736l4.378,1.558c0.217,0.715,0.502,1.401,0.849,2.049l-1.994,4.193c0.725,0.909,1.549,1.733,2.459,2.458l4.192-1.993c0.648,0.347,1.334,0.633,2.05,0.851l1.557,4.377c0.571,0.064,1.148,0.104,1.737,0.104c0.588,0,1.165-0.04,1.736-0.104l1.558-4.377c0.715-0.218,1.399-0.504,2.049-0.851l4.193,1.993c0.909-0.725,1.733-1.549,2.458-2.458l-1.993-4.193c0.347-0.647,0.633-1.334,0.851-2.049L31.229,17.736zM16,20.871c-2.69,0-4.872-2.182-4.872-4.871c0-2.69,2.182-4.872,4.872-4.872c2.689,0,4.871,2.182,4.871,4.872C20.871,18.689,18.689,20.871,16,20.871z"></path><title>Link options.</title></g></g></g></g><g   id="j_40" ><path  stroke="#707070" d="M 545 998 L 1220 992" id="v-399" stroke-width="2" stroke-dasharray="30 30" fill="none" style="opacity: 1;"></path><path  fill="black" stroke="black" d="M 0 0 0 0" transform="matrix(0.9999604821205139,-0.008888449519872665,0.008888449519872665,0.9999604821205139,545,998)"></path><path  fill="#707070" stroke="#707070" d="M 20 0 L 0 10 L 20 20 z" id="v-401" transform="matrix(-0.9999604821205139,0.008888449519872665,-0.008888449519872665,-0.9999604821205139,1220.0888671875,1001.9995727539062)" style="opacity: 1;"></path><path  d="M 545 998 L 1220 992" id="v-400" fill="none" style="cursor: default;"></path><g ><g id="v-393"  label-idx="0" cursor="move" transform="matrix(1,0,0,1,882.5,995)" style="cursor: default; opacity: 1;"><rect joint-selector="rect" id="v-396" fill="#ffffff" rx="3" ry="3" pointer-events="none" width="177.5067138671875" height="62.15048027038574" transform="matrix(1,0,0,1,-88.80000305175781,-31.100000381469727)"></rect><text joint-selector="text" id="v-395" font-size="24px" xml:space="preserve" y="0.8em" fill="#707070" text-anchor="middle" pointer-events="none" font-family="Open Sans" font-weight="normal" transform="matrix(1,0,0,1,0,-24.200000762939453)"><tspan  dy="0">Reads from and</tspan><tspan dy="1.2em" x="0" >writes to</tspan></text></g><g id="v-394"  label-idx="1" cursor="move" transform="matrix(1,0,0,1,872.5,1037)" style="cursor: default; opacity: 1;"><rect joint-selector="rect" id="v-398" fill="#ffffff" rx="3" ry="3"  width="0" height="0" transform="matrix(1,0,0,1,0,0)" display="none"></rect><text joint-selector="text" id="v-397" fill="#000000" font-size="14" text-anchor="middle" pointer-events="none"></text></g></g><g  display="none"></g><g  id="v-403" display="none"><g  id="v-391"><path  end="source" d="M 26 0 L 0 13 L 26 26 z"></path></g><g  id="v-392"><path  end="target" d="M 26 0 L 0 13 L 26 26 z"></path></g></g><g  id="v-402" display="none"><g  id="v-390" transform="translate(584.9984198467246, 997.6444584902513) "><g  event="remove"><circle r="11"></circle><path transform="scale(.8) translate(-16, -16)" d="M24.778,21.419 19.276,15.917 24.777,10.415 21.949,7.585 16.447,13.087 10.945,7.585 8.117,10.415 13.618,15.917 8.116,21.419 10.946,24.248 16.447,18.746 21.948,24.248z"></path><title>Remove link.</title></g><g  event="link:options"><circle r="11" transform="translate(25)"></circle><path fill="white" transform="scale(.55) translate(29, -16)" d="M31.229,17.736c0.064-0.571,0.104-1.148,0.104-1.736s-0.04-1.166-0.104-1.737l-4.377-1.557c-0.218-0.716-0.504-1.401-0.851-2.05l1.993-4.192c-0.725-0.91-1.549-1.734-2.458-2.459l-4.193,1.994c-0.647-0.347-1.334-0.632-2.049-0.849l-1.558-4.378C17.165,0.708,16.588,0.667,16,0.667s-1.166,0.041-1.737,0.105L12.707,5.15c-0.716,0.217-1.401,0.502-2.05,0.849L6.464,4.005C5.554,4.73,4.73,5.554,4.005,6.464l1.994,4.192c-0.347,0.648-0.632,1.334-0.849,2.05l-4.378,1.557C0.708,14.834,0.667,15.412,0.667,16s0.041,1.165,0.105,1.736l4.378,1.558c0.217,0.715,0.502,1.401,0.849,2.049l-1.994,4.193c0.725,0.909,1.549,1.733,2.459,2.458l4.192-1.993c0.648,0.347,1.334,0.633,2.05,0.851l1.557,4.377c0.571,0.064,1.148,0.104,1.737,0.104c0.588,0,1.165-0.04,1.736-0.104l1.558-4.377c0.715-0.218,1.399-0.504,2.049-0.851l4.193,1.993c0.909-0.725,1.733-1.549,2.458-2.458l-1.993-4.193c0.347-0.647,0.633-1.334,0.851-2.049L31.229,17.736zM16,20.871c-2.69,0-4.872-2.182-4.872-4.871c0-2.69,2.182-4.872,4.872-4.872c2.689,0,4.871,2.182,4.871,4.872C20.871,18.689,18.689,20.871,16,20.871z"></path><title>Link options.</title></g></g></g></g><g   id="j_41" ><path  stroke="#707070" d="M 1670 930 L 1930 860" id="v-413" stroke-width="2" stroke-dasharray="30 30" fill="none" style="opacity: 1;"></path><path  fill="black" stroke="black" d="M 0 0 0 0" transform="matrix(0.9660063982009888,-0.2585180699825287,0.2585180699825287,0.9660063982009888,1670,929.7899780273438)"></path><path  fill="#707070" stroke="#707070" d="M 20 0 L 0 10 L 20 20 z" id="v-415" transform="matrix(-0.9660063982009888,0.2585180699825287,-0.2585180699825287,-0.9660063982009888,1932.585205078125,869.8700561523438)" style="opacity: 1;"></path><path  d="M 1670 930 L 1930 860" id="v-414" fill="none" style="cursor: default;"></path><g ><g id="v-407"  label-idx="0" cursor="move" transform="matrix(1,0,0,1,1800,895)" style="cursor: default; opacity: 1;"><rect joint-selector="rect" id="v-410" fill="#ffffff" rx="3" ry="3" pointer-events="none" width="53.84410858154297" height="33.35047912597656" transform="matrix(1,0,0,1,-26.899999618530273,-16.700000762939453)"></rect><text joint-selector="text" id="v-409" font-size="24px" xml:space="preserve" y="0.8em" fill="#707070" text-anchor="middle" pointer-events="none" font-family="Open Sans" font-weight="normal" transform="matrix(1,0,0,1,0,-9.800000190734863)"><tspan  dy="0">Uses</tspan></text></g><g id="v-408"  label-idx="1" cursor="move" transform="matrix(1,0,0,1,1790,922)" style="cursor: default; opacity: 1;"><rect joint-selector="rect" id="v-412" fill="#ffffff" rx="3" ry="3"  width="0" height="0" transform="matrix(1,0,0,1,0,0)" display="none"></rect><text joint-selector="text" id="v-411" fill="#000000" font-size="14" text-anchor="middle" pointer-events="none"></text></g></g><g  display="none"></g><g  id="v-417" display="none"><g  id="v-405"><path  end="source" d="M 26 0 L 0 13 L 26 26 z"></path></g><g  id="v-406"><path  end="target" d="M 26 0 L 0 13 L 26 26 z"></path></g></g><g  id="v-416" display="none"><g  id="v-404" transform="translate(1708.624630340827, 919.6010610620851) "><g  event="remove"><circle r="11"></circle><path transform="scale(.8) translate(-16, -16)" d="M24.778,21.419 19.276,15.917 24.777,10.415 21.949,7.585 16.447,13.087 10.945,7.585 8.117,10.415 13.618,15.917 8.116,21.419 10.946,24.248 16.447,18.746 21.948,24.248z"></path><title>Remove link.</title></g><g  event="link:options"><circle r="11" transform="translate(25)"></circle><path fill="white" transform="scale(.55) translate(29, -16)" d="M31.229,17.736c0.064-0.571,0.104-1.148,0.104-1.736s-0.04-1.166-0.104-1.737l-4.377-1.557c-0.218-0.716-0.504-1.401-0.851-2.05l1.993-4.192c-0.725-0.91-1.549-1.734-2.458-2.459l-4.193,1.994c-0.647-0.347-1.334-0.632-2.049-0.849l-1.558-4.378C17.165,0.708,16.588,0.667,16,0.667s-1.166,0.041-1.737,0.105L12.707,5.15c-0.716,0.217-1.401,0.502-2.05,0.849L6.464,4.005C5.554,4.73,4.73,5.554,4.005,6.464l1.994,4.192c-0.347,0.648-0.632,1.334-0.849,2.05l-4.378,1.557C0.708,14.834,0.667,15.412,0.667,16s0.041,1.165,0.105,1.736l4.378,1.558c0.217,0.715,0.502,1.401,0.849,2.049l-1.994,4.193c0.725,0.909,1.549,1.733,2.459,2.458l4.192-1.993c0.648,0.347,1.334,0.633,2.05,0.851l1.557,4.377c0.571,0.064,1.148,0.104,1.737,0.104c0.588,0,1.165-0.04,1.736-0.104l1.558-4.377c0.715-0.218,1.399-0.504,2.049-0.851l4.193,1.993c0.909-0.725,1.733-1.549,2.458-2.458l-1.993-4.193c0.347-0.647,0.633-1.334,0.851-2.049L31.229,17.736zM16,20.871c-2.69,0-4.872-2.182-4.872-4.871c0-2.69,2.182-4.872,4.872-4.872c2.689,0,4.871,2.182,4.871,4.872C20.871,18.689,18.689,20.871,16,20.871z"></path><title>Link options.</title></g></g></g></g><g   id="j_42" ><path  stroke="#707070" d="M 1429 400 L 1433 475" id="v-427" stroke-width="2" stroke-dasharray="30 30" fill="none" style="opacity: 1;"></path><path  fill="black" stroke="black" d="M 0 0 0 0" transform="matrix(0.047014620155096054,0.998894214630127,-0.998894214630127,0.047014620155096054,1429.4100341796875,400)"></path><path  fill="#707070" stroke="#707070" d="M 20 0 L 0 10 L 20 20 z" id="v-429" transform="matrix(-0.047014620155096054,-0.998894214630127,0.998894214630127,-0.047014620155096054,1422.9510498046875,475.4701232910156)" style="opacity: 1;"></path><path  d="M 1429 400 L 1433 475" id="v-428" fill="none" style="cursor: default;"></path><g ><g id="v-421"  label-idx="0" cursor="move" transform="matrix(1,0,0,1,1431,437.5)" style="cursor: default; opacity: 1;"><rect joint-selector="rect" id="v-424" fill="#ffffff" rx="3" ry="3" pointer-events="none" width="53.84410858154297" height="33.35047912597656" transform="matrix(1,0,0,1,-26.899999618530273,-16.700000762939453)"></rect><text joint-selector="text" id="v-423" font-size="24px" xml:space="preserve" y="0.8em" fill="#707070" text-anchor="middle" pointer-events="none" font-family="Open Sans" font-weight="normal" transform="matrix(1,0,0,1,0,-9.800000190734863)"><tspan  dy="0">Uses</tspan></text></g><g id="v-422"  label-idx="1" cursor="move" transform="matrix(1,0,0,1,1421,464.5)" style="cursor: default; opacity: 1;"><rect joint-selector="rect" id="v-426" fill="#ffffff" rx="3" ry="3"  width="0" height="0" transform="matrix(1,0,0,1,0,0)" display="none"></rect><text joint-selector="text" id="v-425" fill="#000000" font-size="14" text-anchor="middle" pointer-events="none"></text></g></g><g  display="none"></g><g  id="v-431" display="none"><g  id="v-419"><path  end="source" d="M 26 0 L 0 13 L 26 26 z"></path></g><g  id="v-420"><path  end="target" d="M 26 0 L 0 13 L 26 26 z"></path></g></g><g  id="v-430" display="none"><g  id="v-418" transform="translate(1430.065152858323, 419.9716160935565) scale(.5)"><g  event="remove"><circle r="11"></circle><path transform="scale(.8) translate(-16, -16)" d="M24.778,21.419 19.276,15.917 24.777,10.415 21.949,7.585 16.447,13.087 10.945,7.585 8.117,10.415 13.618,15.917 8.116,21.419 10.946,24.248 16.447,18.746 21.948,24.248z"></path><title>Remove link.</title></g><g  event="link:options"><circle r="11" transform="translate(25)"></circle><path fill="white" transform="scale(.55) translate(29, -16)" d="M31.229,17.736c0.064-0.571,0.104-1.148,0.104-1.736s-0.04-1.166-0.104-1.737l-4.377-1.557c-0.218-0.716-0.504-1.401-0.851-2.05l1.993-4.192c-0.725-0.91-1.549-1.734-2.458-2.459l-4.193,1.994c-0.647-0.347-1.334-0.632-2.049-0.849l-1.558-4.378C17.165,0.708,16.588,0.667,16,0.667s-1.166,0.041-1.737,0.105L12.707,5.15c-0.716,0.217-1.401,0.502-2.05,0.849L6.464,4.005C5.554,4.73,4.73,5.554,4.005,6.464l1.994,4.192c-0.347,0.648-0.632,1.334-0.849,2.05l-4.378,1.557C0.708,14.834,0.667,15.412,0.667,16s0.041,1.165,0.105,1.736l4.378,1.558c0.217,0.715,0.502,1.401,0.849,2.049l-1.994,4.193c0.725,0.909,1.549,1.733,2.459,2.458l4.192-1.993c0.648,0.347,1.334,0.633,2.05,0.851l1.557,4.377c0.571,0.064,1.148,0.104,1.737,0.104c0.588,0,1.165-0.04,1.736-0.104l1.558-4.377c0.715-0.218,1.399-0.504,2.049-0.851l4.193,1.993c0.909-0.725,1.733-1.549,2.458-2.458l-1.993-4.193c0.347-0.647,0.633-1.334,0.851-2.049L31.229,17.736zM16,20.871c-2.69,0-4.872-2.182-4.872-4.871c0-2.69,2.182-4.872,4.872-4.872c2.689,0,4.871,2.182,4.871,4.872C20.871,18.689,18.689,20.871,16,20.871z"></path><title>Link options.</title></g></g></g></g><g   id="j_43" ><path  stroke="#707070" d="M 1665 680 L 1930 745" id="v-441" stroke-width="2" stroke-dasharray="30 30" fill="none" style="opacity: 1;"></path><path  fill="black" stroke="black" d="M 0 0 0 0" transform="matrix(0.9713294506072998,0.23773746192455292,-0.23773746192455292,0.9713294506072998,1665,680.0700073242188)"></path><path  fill="#707070" stroke="#707070" d="M 20 0 L 0 10 L 20 20 z" id="v-443" transform="matrix(-0.9713294506072998,-0.23773737251758575,0.23773737251758575,-0.9713294506072998,1927.6226806640625,754.643310546875)" style="opacity: 1;"></path><path  d="M 1665 680 L 1930 745" id="v-442" fill="none" style="cursor: default;"></path><g ><g id="v-435"  label-idx="0" cursor="move" transform="matrix(1,0,0,1,1797.5,712.5)" style="cursor: default; opacity: 1;"><rect joint-selector="rect" id="v-438" fill="#ffffff" rx="3" ry="3" pointer-events="none" width="53.84410858154297" height="33.35047912597656" transform="matrix(1,0,0,1,-26.899999618530273,-16.700000762939453)"></rect><text joint-selector="text" id="v-437" font-size="24px" xml:space="preserve" y="0.8em" fill="#707070" text-anchor="middle" pointer-events="none" font-family="Open Sans" font-weight="normal" transform="matrix(1,0,0,1,0,-9.800000190734863)"><tspan  dy="0">Uses</tspan></text></g><g id="v-436"  label-idx="1" cursor="move" transform="matrix(1,0,0,1,1787.5,739.5)" style="cursor: default; opacity: 1;"><rect joint-selector="rect" id="v-440" fill="#ffffff" rx="3" ry="3"  width="0" height="0" transform="matrix(1,0,0,1,0,0)" display="none"></rect><text joint-selector="text" id="v-439" fill="#000000" font-size="14" text-anchor="middle" pointer-events="none"></text></g></g><g  display="none"></g><g  id="v-445" display="none"><g  id="v-433"><path  end="source" d="M 26 0 L 0 13 L 26 26 z"></path></g><g  id="v-434"><path  end="target" d="M 26 0 L 0 13 L 26 26 z"></path></g></g><g  id="v-444" display="none"><g  id="v-432" transform="translate(1703.8484337639243, 689.5288611119059) "><g  event="remove"><circle r="11"></circle><path transform="scale(.8) translate(-16, -16)" d="M24.778,21.419 19.276,15.917 24.777,10.415 21.949,7.585 16.447,13.087 10.945,7.585 8.117,10.415 13.618,15.917 8.116,21.419 10.946,24.248 16.447,18.746 21.948,24.248z"></path><title>Remove link.</title></g><g  event="link:options"><circle r="11" transform="translate(25)"></circle><path fill="white" transform="scale(.55) translate(29, -16)" d="M31.229,17.736c0.064-0.571,0.104-1.148,0.104-1.736s-0.04-1.166-0.104-1.737l-4.377-1.557c-0.218-0.716-0.504-1.401-0.851-2.05l1.993-4.192c-0.725-0.91-1.549-1.734-2.458-2.459l-4.193,1.994c-0.647-0.347-1.334-0.632-2.049-0.849l-1.558-4.378C17.165,0.708,16.588,0.667,16,0.667s-1.166,0.041-1.737,0.105L12.707,5.15c-0.716,0.217-1.401,0.502-2.05,0.849L6.464,4.005C5.554,4.73,4.73,5.554,4.005,6.464l1.994,4.192c-0.347,0.648-0.632,1.334-0.849,2.05l-4.378,1.557C0.708,14.834,0.667,15.412,0.667,16s0.041,1.165,0.105,1.736l4.378,1.558c0.217,0.715,0.502,1.401,0.849,2.049l-1.994,4.193c0.725,0.909,1.549,1.733,2.459,2.458l4.192-1.993c0.648,0.347,1.334,0.633,2.05,0.851l1.557,4.377c0.571,0.064,1.148,0.104,1.737,0.104c0.588,0,1.165-0.04,1.736-0.104l1.558-4.377c0.715-0.218,1.399-0.504,2.049-0.851l4.193,1.993c0.909-0.725,1.733-1.549,2.458-2.458l-1.993-4.193c0.347-0.647,0.633-1.334,0.851-2.049L31.229,17.736zM16,20.871c-2.69,0-4.872-2.182-4.872-4.871c0-2.69,2.182-4.872,4.872-4.872c2.689,0,4.871,2.182,4.871,4.872C20.871,18.689,18.689,20.871,16,20.871z"></path><title>Link options.</title></g></g></g></g><g   id="j_44" ><path  stroke="#707070" d="M 302 395 L 306 460" id="v-455" stroke-width="2" stroke-dasharray="30 30" fill="none" style="opacity: 1;"></path><path  fill="black" stroke="black" d="M 0 0 0 0" transform="matrix(0.060045305639505386,0.9981956481933594,-0.9981956481933594,0.060045305639505386,302.04998779296875,395)"></path><path  fill="#707070" stroke="#707070" d="M 20 0 L 0 10 L 20 20 z" id="v-457" transform="matrix(-0.060045305639505386,-0.9981956481933594,0.9981956481933594,-0.060045305639505386,295.9780578613281,460.6004333496094)" style="opacity: 1;"></path><path  d="M 302 395 L 306 460" id="v-456" fill="none" style="cursor: default;"></path><g ><g id="v-449"  label-idx="0" cursor="move" transform="matrix(1,0,0,1,304,427.5)" style="cursor: default; opacity: 1;"><rect joint-selector="rect" id="v-452" fill="#ffffff" rx="3" ry="3" pointer-events="none" width="53.84410858154297" height="33.35047912597656" transform="matrix(1,0,0,1,-26.899999618530273,-16.700000762939453)"></rect><text joint-selector="text" id="v-451" font-size="24px" xml:space="preserve" y="0.8em" fill="#707070" text-anchor="middle" pointer-events="none" font-family="Open Sans" font-weight="normal" transform="matrix(1,0,0,1,0,-9.800000190734863)"><tspan  dy="0">Uses</tspan></text></g><g id="v-450"  label-idx="1" cursor="move" transform="matrix(1,0,0,1,294,454.5)" style="cursor: default; opacity: 1;"><rect joint-selector="rect" id="v-454" fill="#ffffff" rx="3" ry="3"  width="0" height="0" transform="matrix(1,0,0,1,0,0)" display="none"></rect><text joint-selector="text" id="v-453" fill="#000000" font-size="14" text-anchor="middle" pointer-events="none"></text></g></g><g  display="none"></g><g  id="v-459" display="none"><g  id="v-447"><path  end="source" d="M 26 0 L 0 13 L 26 26 z"></path></g><g  id="v-448"><path  end="target" d="M 26 0 L 0 13 L 26 26 z"></path></g></g><g  id="v-458" display="none"><g  id="v-446" transform="translate(303.2284453783666, 414.9622373984574) scale(.5)"><g  event="remove"><circle r="11"></circle><path transform="scale(.8) translate(-16, -16)" d="M24.778,21.419 19.276,15.917 24.777,10.415 21.949,7.585 16.447,13.087 10.945,7.585 8.117,10.415 13.618,15.917 8.116,21.419 10.946,24.248 16.447,18.746 21.948,24.248z"></path><title>Remove link.</title></g><g  event="link:options"><circle r="11" transform="translate(25)"></circle><path fill="white" transform="scale(.55) translate(29, -16)" d="M31.229,17.736c0.064-0.571,0.104-1.148,0.104-1.736s-0.04-1.166-0.104-1.737l-4.377-1.557c-0.218-0.716-0.504-1.401-0.851-2.05l1.993-4.192c-0.725-0.91-1.549-1.734-2.458-2.459l-4.193,1.994c-0.647-0.347-1.334-0.632-2.049-0.849l-1.558-4.378C17.165,0.708,16.588,0.667,16,0.667s-1.166,0.041-1.737,0.105L12.707,5.15c-0.716,0.217-1.401,0.502-2.05,0.849L6.464,4.005C5.554,4.73,4.73,5.554,4.005,6.464l1.994,4.192c-0.347,0.648-0.632,1.334-0.849,2.05l-4.378,1.557C0.708,14.834,0.667,15.412,0.667,16s0.041,1.165,0.105,1.736l4.378,1.558c0.217,0.715,0.502,1.401,0.849,2.049l-1.994,4.193c0.725,0.909,1.549,1.733,2.459,2.458l4.192-1.993c0.648,0.347,1.334,0.633,2.05,0.851l1.557,4.377c0.571,0.064,1.148,0.104,1.737,0.104c0.588,0,1.165-0.04,1.736-0.104l1.558-4.377c0.715-0.218,1.399-0.504,2.049-0.851l4.193,1.993c0.909-0.725,1.733-1.549,2.458-2.458l-1.993-4.193c0.347-0.647,0.633-1.334,0.851-2.049L31.229,17.736zM16,20.871c-2.69,0-4.872-2.182-4.872-4.871c0-2.69,2.182-4.872,4.872-4.872c2.689,0,4.871,2.182,4.871,4.872C20.871,18.689,18.689,20.871,16,20.871z"></path><title>Link options.</title></g></g></g></g><g   id="j_45" ><path  stroke="#707070" d="M 317 760 L 318 850" id="v-472" stroke-width="2" stroke-dasharray="30 30" fill="none" style="opacity: 1;"></path><path  fill="black" stroke="black" d="M 0 0 0 0" transform="matrix(0.012887878343462944,0.9999169707298279,-0.9999169707298279,0.012887878343462944,316.9200134277344,760)"></path><path  fill="#707070" stroke="#707070" d="M 20 0 L 0 10 L 20 20 z" id="v-474" transform="matrix(-0.012887745164334774,-0.9999169707298279,0.9999169707298279,-0.012887745164334774,308.080810546875,850.12890625)" style="opacity: 1;"></path><path  d="M 317 760 L 318 850" id="v-473" fill="none" style="cursor: default;"></path><g ><g id="v-466"  label-idx="0" cursor="move" transform="matrix(1,0,0,1,317.5,805)" style="cursor: default; opacity: 1;"><rect joint-selector="rect" id="v-469" fill="#ffffff" rx="3" ry="3" pointer-events="none" width="177.5067138671875" height="62.15048027038574" transform="matrix(1,0,0,1,-88.80000305175781,-31.100000381469727)"></rect><text joint-selector="text" id="v-468" font-size="24px" xml:space="preserve" y="0.8em" fill="#707070" text-anchor="middle" pointer-events="none" font-family="Open Sans" font-weight="normal" transform="matrix(1,0,0,1,0,-24.200000762939453)"><tspan  dy="0">Reads from and</tspan><tspan dy="1.2em" x="0" >writes to</tspan></text></g><g id="v-467"  label-idx="1" cursor="move" transform="matrix(1,0,0,1,307.5,847)" style="cursor: default; opacity: 1;"><rect joint-selector="rect" id="v-471" fill="#ffffff" rx="3" ry="3"  width="0" height="0" transform="matrix(1,0,0,1,0,0)" display="none"></rect><text joint-selector="text" id="v-470" fill="#000000" font-size="14" text-anchor="middle" pointer-events="none"></text></g></g><g  display="none"></g><g  id="v-476" display="none"><g  id="v-464"><path  end="source" d="M 26 0 L 0 13 L 26 26 z"></path></g><g  id="v-465"><path  end="target" d="M 26 0 L 0 13 L 26 26 z"></path></g></g><g  id="v-475" display="none"><g  id="v-463" transform="translate(317.2222085060711, 779.9987655463989) scale(.5)"><g  event="remove"><circle r="11"></circle><path transform="scale(.8) translate(-16, -16)" d="M24.778,21.419 19.276,15.917 24.777,10.415 21.949,7.585 16.447,13.087 10.945,7.585 8.117,10.415 13.618,15.917 8.116,21.419 10.946,24.248 16.447,18.746 21.948,24.248z"></path><title>Remove link.</title></g><g  event="link:options"><circle r="11" transform="translate(25)"></circle><path fill="white" transform="scale(.55) translate(29, -16)" d="M31.229,17.736c0.064-0.571,0.104-1.148,0.104-1.736s-0.04-1.166-0.104-1.737l-4.377-1.557c-0.218-0.716-0.504-1.401-0.851-2.05l1.993-4.192c-0.725-0.91-1.549-1.734-2.458-2.459l-4.193,1.994c-0.647-0.347-1.334-0.632-2.049-0.849l-1.558-4.378C17.165,0.708,16.588,0.667,16,0.667s-1.166,0.041-1.737,0.105L12.707,5.15c-0.716,0.217-1.401,0.502-2.05,0.849L6.464,4.005C5.554,4.73,4.73,5.554,4.005,6.464l1.994,4.192c-0.347,0.648-0.632,1.334-0.849,2.05l-4.378,1.557C0.708,14.834,0.667,15.412,0.667,16s0.041,1.165,0.105,1.736l4.378,1.558c0.217,0.715,0.502,1.401,0.849,2.049l-1.994,4.193c0.725,0.909,1.549,1.733,2.459,2.458l4.192-1.993c0.648,0.347,1.334,0.633,2.05,0.851l1.557,4.377c0.571,0.064,1.148,0.104,1.737,0.104c0.588,0,1.165-0.04,1.736-0.104l1.558-4.377c0.715-0.218,1.399-0.504,2.049-0.851l4.193,1.993c0.909-0.725,1.733-1.549,2.458-2.458l-1.993-4.193c0.347-0.647,0.633-1.334,0.851-2.049L31.229,17.736zM16,20.871c-2.69,0-4.872-2.182-4.872-4.871c0-2.69,2.182-4.872,4.872-4.872c2.689,0,4.871,2.182,4.871,4.872C20.871,18.689,18.689,20.871,16,20.871z"></path><title>Link options.</title></g></g></g></g></g><g ></g><g ></g><g ></g></g></svg>