<svg xmlns="http://www.w3.org/2000/svg" xmlns:xlink="http://www.w3.org/1999/xlink" version="1.1" viewBox="0 0 2480 1748" style="background: #ffffff"><defs><style>@import url(https://fonts.googleapis.com/css?family=Open+Sans:400,700);</style></defs><defs joint-selector="defs"></defs><g  joint-selector="layers" transform="matrix(1,0,0,1,0,0)"><g ></g><g ><g   id="j_29"  transform="translate(20,1710.5)"><g id="v-288"><text  id="v-289" font-size="22px" xml:space="preserve" y="0.8em" font-weight="normal" text-anchor="start" fill="#aaaaaa" pointer-events="none" display="block" font-family="Open Sans"><tspan  dy="0" display="block">Monday, April 8, 2024 at 4:07 PM Central European Summer Time</tspan></text></g></g><g   id="j_28"  transform="translate(20,1665.5)"><g id="v-286"><text  id="v-287" font-size="36px" xml:space="preserve" y="0.8em" font-weight="normal" text-anchor="start" fill="#000000" pointer-events="none" display="block" font-family="Open Sans"><tspan  dy="0" display="block">[System Context] EPOS System</tspan></text></g></g><g   id="j_30"  transform="translate(945,75)" style=""><g  id="v-293" style="opacity: 1;"><rect  x="0" y="160" width="400" height="240" rx="70" id="v-295" stroke="#1a0c2f" stroke-width="2" pointer-events="visiblePainted" fill="#1d0d34" style="fill: rgb(29, 13, 52); stroke: rgb(26, 12, 47);"></rect><circle  cx="200" cy="88.88888888888889" r="88.88888888888889" id="v-294" stroke="#1a0c2f" stroke-width="2" pointer-events="visiblePainted" fill="#1d0d34" style="fill: rgb(29, 13, 52); stroke: rgb(26, 12, 47);"></circle><line  x1="80" y1="266.6666666666667" x2="80" y2="400" id="v-301" stroke="#1a0c2f" stroke-width="2" style="stroke: rgb(26, 12, 47);"></line><line  x1="320" y1="266.6666666666667" x2="320" y2="400" id="v-302" stroke="#1a0c2f" stroke-width="2" style="stroke: rgb(26, 12, 47);"></line><text  id="v-296" font-size="34" xml:space="preserve" y="0.8em" font-weight="bold" text-anchor="middle" pointer-events="visible" font-family="Open Sans" fill="#ffffff" transform="matrix(1,0,0,1,200,243.10000610351562)" style="fill: rgb(255, 255, 255);"><tspan  dy="0">Issuer (Docent)</tspan></text><text  id="v-297" font-size="17" xml:space="preserve" y="0.8em" text-anchor="middle" font-family="Open Sans" fill="#ffffff" transform="matrix(1,0,0,1,200,285.6000061035156)" style="fill: rgb(255, 255, 255);"><tspan  dy="0">[Person]</tspan></text><text  id="v-298" font-size="24" xml:space="preserve" display="none" y="0.8em" text-anchor="middle" font-family="Open Sans" fill="#ffffff" transform="matrix(1,0,0,1,200,316.8999938964844)" style="fill: rgb(255, 255, 255);"><tspan style="fill-opacity: 0; stroke-opacity: 0;"  dy="0">-</tspan></text><g  id="v-299" font-weight="normal" text-anchor="middle" color="#ffffff" transform="matrix(1,0,0,1,197.5,326.8999938964844)" style="fill: rgb(255, 255, 255);" display="none"><g ></g><g ></g><g ></g><g ></g></g><image  id="v-300"></image></g></g><g   id="j_31"  transform="translate(1760,580)" style=""><g  id="v-306" style="opacity: 1;"><rect  x="0" y="160" width="400" height="240" rx="70" id="v-308" stroke="#1a0c2f" stroke-width="2" pointer-events="visiblePainted" fill="#1d0d34" style="fill: rgb(29, 13, 52); stroke: rgb(26, 12, 47);"></rect><circle  cx="200" cy="88.88888888888889" r="88.88888888888889" id="v-307" stroke="#1a0c2f" stroke-width="2" pointer-events="visiblePainted" fill="#1d0d34" style="fill: rgb(29, 13, 52); stroke: rgb(26, 12, 47);"></circle><line  x1="80" y1="266.6666666666667" x2="80" y2="400" id="v-314" stroke="#1a0c2f" stroke-width="2" style="stroke: rgb(26, 12, 47);"></line><line  x1="320" y1="266.6666666666667" x2="320" y2="400" id="v-315" stroke="#1a0c2f" stroke-width="2" style="stroke: rgb(26, 12, 47);"></line><text  id="v-309" font-size="34" xml:space="preserve" y="0.8em" font-weight="bold" text-anchor="middle" pointer-events="visible" font-family="Open Sans" fill="#ffffff" transform="matrix(1,0,0,1,200,243.10000610351562)" style="fill: rgb(255, 255, 255);"><tspan  dy="0">Holder (Student)</tspan></text><text  id="v-310" font-size="17" xml:space="preserve" y="0.8em" text-anchor="middle" font-family="Open Sans" fill="#ffffff" transform="matrix(1,0,0,1,200,285.6000061035156)" style="fill: rgb(255, 255, 255);"><tspan  dy="0">[Person]</tspan></text><text  id="v-311" font-size="24" xml:space="preserve" display="none" y="0.8em" text-anchor="middle" font-family="Open Sans" fill="#ffffff" transform="matrix(1,0,0,1,200,316.8999938964844)" style="fill: rgb(255, 255, 255);"><tspan style="fill-opacity: 0; stroke-opacity: 0;"  dy="0">-</tspan></text><g  id="v-312" font-weight="normal" text-anchor="middle" color="#ffffff" transform="matrix(1,0,0,1,197.5,326.8999938964844)" style="fill: rgb(255, 255, 255);" display="none"><g ></g><g ></g><g ></g><g ></g></g><image  id="v-313"></image></g></g><g   id="j_32"  transform="translate(965,1180)" style=""><g  id="v-316" style="opacity: 1;"><rect  id="v-317" rx="20" ry="20" stroke="#b5197a" stroke-width="2" pointer-events="visiblePainted" fill="#c91c88" width="450" height="300" style="fill: rgb(201, 28, 136); stroke: rgb(181, 25, 122);"></rect><text  id="v-318" font-size="34" xml:space="preserve" y="0.8em" font-weight="bold" text-anchor="middle" pointer-events="visible" font-family="Open Sans" fill="#ffffff" transform="matrix(1,0,0,1,225,98.0999984741211)" style="fill: rgb(255, 255, 255);"><tspan  dy="0">EBSI</tspan></text><text  id="v-319" font-size="17" xml:space="preserve" y="0.8em" text-anchor="middle" font-family="Open Sans" fill="#ffffff" transform="matrix(1,0,0,1,225,140.60000610351562)" style="fill: rgb(255, 255, 255);"><tspan  dy="0">[Software System]</tspan></text><text  id="v-320" font-size="24" xml:space="preserve" y="0.8em" text-anchor="middle" font-family="Open Sans" fill="#ffffff" transform="matrix(1,0,0,1,225,171.89999389648438)" style="fill: rgb(255, 255, 255);"><tspan  dy="0">Blockchain</tspan></text><g  id="v-321" color="#ffffff" transform="matrix(1,0,0,1,222.5,211.89999389648438)" style="fill: rgb(255, 255, 255);" display="none"><g ></g><g ></g><g ></g><g ></g></g><image  id="v-322"></image></g></g><g   id="j_33"  transform="translate(955,635)" style=""><g  id="v-323" style="opacity: 1;"><rect  id="v-324" rx="20" ry="20" stroke="#00a1d7" stroke-width="2" pointer-events="visiblePainted" fill="#00b3ef" width="450" height="300" style="fill: rgb(0, 179, 239); stroke: rgb(0, 161, 215);"></rect><text  id="v-325" font-size="34" xml:space="preserve" y="0.8em" font-weight="bold" text-anchor="middle" pointer-events="visible" font-family="Open Sans" fill="#ffffff" transform="matrix(1,0,0,1,225,113.0999984741211)" style="fill: rgb(255, 255, 255);"><tspan  dy="0">EPOS System</tspan></text><text  id="v-326" font-size="17" xml:space="preserve" y="0.8em" text-anchor="middle" font-family="Open Sans" fill="#ffffff" transform="matrix(1,0,0,1,225,155.60000610351562)" style="fill: rgb(255, 255, 255);"><tspan  dy="0">[Software System]</tspan></text><text  id="v-327" font-size="24" xml:space="preserve" display="none" y="0.8em" text-anchor="middle" font-family="Open Sans" fill="#ffffff" transform="matrix(1,0,0,1,225,186.89999389648438)" style="fill: rgb(255, 255, 255);"><tspan style="fill-opacity: 0; stroke-opacity: 0;"  dy="0">-</tspan></text><g  id="v-328" color="#ffffff" transform="matrix(1,0,0,1,210,196.89999389648438)" style="fill: rgb(255, 255, 255);" display="none"><g  transform="translate(5 0)"><svg xmlns="http://www.w3.org/2000/svg" width="20" height="20" fill="currentColor" viewBox="0 0 16 16"><path fill-rule="evenodd" d="M6.5 12a5.5 5.5 0 1 0 0-11 5.5 5.5 0 0 0 0 11zM13 6.5a6.5 6.5 0 1 1-13 0 6.5 6.5 0 0 1 13 0z"></path><path d="M10.344 11.742c.03.04.062.078.098.115l3.85 3.85a1 1 0 0 0 1.415-1.414l-3.85-3.85a1.007 1.007 0 0 0-.115-.1 6.538 6.538 0 0 1-1.398 1.4z"></path><path fill-rule="evenodd" d="M6.5 3a.5.5 0 0 1 .5.5V6h2.5a.5.5 0 0 1 0 1H7v2.5a.5.5 0 0 1-1 0V7H3.5a.5.5 0 0 1 0-1H6V3.5a.5.5 0 0 1 .5-.5z"></path></svg></g><g ></g><g ></g><g ></g></g><image  id="v-329"></image></g></g><g   id="j_34" ><path  stroke="#707070" d="M 1183 935 L 1187 1180" id="v-339" stroke-width="2" stroke-dasharray="30 30" fill="none" style="opacity: 1;"></path><path  fill="black" stroke="black" d="M 0 0 0 0" transform="matrix(0.018364259973168373,0.9998313784599304,-0.9998313784599304,0.018364259973168373,1182.75,935)"></path><path  fill="#707070" stroke="#707070" d="M 20 0 L 0 10 L 20 20 z" id="v-341" transform="matrix(-0.01836412586271763,-0.9998313784599304,0.9998313784599304,-0.01836412586271763,1177.251708984375,1180.1837158203125)" style="opacity: 1;"></path><path  d="M 1183 935 L 1187 1180" id="v-340" fill="none" style="cursor: default;"></path><g ><g id="v-333"  label-idx="0" cursor="move" transform="matrix(1,0,0,1,1185,1057.5)" style="cursor: default; opacity: 1;"><rect joint-selector="rect" id="v-336" fill="#ffffff" rx="3" ry="3" pointer-events="none" width="53.900001525878906" height="33.999996185302734" transform="matrix(1,0,0,1,-27,-17)"></rect><text joint-selector="text" id="v-335" font-size="24px" xml:space="preserve" y="0.8em" fill="#707070" text-anchor="middle" pointer-events="none" font-family="Open Sans" font-weight="normal" transform="matrix(1,0,0,1,0,-10.199999809265137)"><tspan  dy="0">Uses</tspan></text></g><g id="v-334"  label-idx="1" cursor="move" transform="matrix(1,0,0,1,1175,1084.5)" style="cursor: default; opacity: 1;"><rect joint-selector="rect" id="v-338" fill="#ffffff" rx="3" ry="3"  width="0" height="0" transform="matrix(1,0,0,1,0,0)" display="none"></rect><text joint-selector="text" id="v-337" fill="#000000" font-size="14" text-anchor="middle" pointer-events="none"></text></g></g><g  display="none"></g><g  id="v-343" display="none"><g  id="v-331"><path  end="source" d="M 26 0 L 0 13 L 26 26 z"></path></g><g  id="v-332"><path  end="target" d="M 26 0 L 0 13 L 26 26 z"></path></g></g><g  id="v-342" display="none"><g  id="v-330" transform="translate(1183.6529742033224, 974.994669953505) "><g  event="remove"><circle r="11"></circle><path transform="scale(.8) translate(-16, -16)" d="M24.778,21.419 19.276,15.917 24.777,10.415 21.949,7.585 16.447,13.087 10.945,7.585 8.117,10.415 13.618,15.917 8.116,21.419 10.946,24.248 16.447,18.746 21.948,24.248z"></path><title>Remove link.</title></g><g  event="link:options"><circle r="11" transform="translate(25)"></circle><path fill="white" transform="scale(.55) translate(29, -16)" d="M31.229,17.736c0.064-0.571,0.104-1.148,0.104-1.736s-0.04-1.166-0.104-1.737l-4.377-1.557c-0.218-0.716-0.504-1.401-0.851-2.05l1.993-4.192c-0.725-0.91-1.549-1.734-2.458-2.459l-4.193,1.994c-0.647-0.347-1.334-0.632-2.049-0.849l-1.558-4.378C17.165,0.708,16.588,0.667,16,0.667s-1.166,0.041-1.737,0.105L12.707,5.15c-0.716,0.217-1.401,0.502-2.05,0.849L6.464,4.005C5.554,4.73,4.73,5.554,4.005,6.464l1.994,4.192c-0.347,0.648-0.632,1.334-0.849,2.05l-4.378,1.557C0.708,14.834,0.667,15.412,0.667,16s0.041,1.165,0.105,1.736l4.378,1.558c0.217,0.715,0.502,1.401,0.849,2.049l-1.994,4.193c0.725,0.909,1.549,1.733,2.459,2.458l4.192-1.993c0.648,0.347,1.334,0.633,2.05,0.851l1.557,4.377c0.571,0.064,1.148,0.104,1.737,0.104c0.588,0,1.165-0.04,1.736-0.104l1.558-4.377c0.715-0.218,1.399-0.504,2.049-0.851l4.193,1.993c0.909-0.725,1.733-1.549,2.458-2.458l-1.993-4.193c0.347-0.647,0.633-1.334,0.851-2.049L31.229,17.736zM16,20.871c-2.69,0-4.872-2.182-4.872-4.871c0-2.69,2.182-4.872,4.872-4.872c2.689,0,4.871,2.182,4.871,4.872C20.871,18.689,18.689,20.871,16,20.871z"></path><title>Link options.</title></g></g></g></g><g   id="j_35" ><path  stroke="#707070" d="M 1760 781 L 1405 784" id="v-353" stroke-width="2" stroke-dasharray="30 30" fill="none" style="opacity: 1;"></path><path  fill="black" stroke="black" d="M 0 0 0 0" transform="matrix(-0.9999793767929077,0.006422434933483601,-0.006422434933483601,-0.9999793767929077,1760,781.280029296875)"></path><path  fill="#707070" stroke="#707070" d="M 20 0 L 0 10 L 20 20 z" id="v-355" transform="matrix(0.9999793767929077,-0.006422434933483601,0.006422434933483601,0.9999793767929077,1404.935791015625,773.5602416992188)" style="opacity: 1;"></path><path  d="M 1760 781 L 1405 784" id="v-354" fill="none" style="cursor: default;"></path><g ><g id="v-347"  label-idx="0" cursor="move" transform="matrix(1,0,0,1,1582.5,782.5)" style="cursor: default; opacity: 1;"><rect joint-selector="rect" id="v-350" fill="#ffffff" rx="3" ry="3" pointer-events="none" width="53.900001525878906" height="33.999996185302734" transform="matrix(1,0,0,1,-27,-17)"></rect><text joint-selector="text" id="v-349" font-size="24px" xml:space="preserve" y="0.8em" fill="#707070" text-anchor="middle" pointer-events="none" font-family="Open Sans" font-weight="normal" transform="matrix(1,0,0,1,0,-10.199999809265137)"><tspan  dy="0">Uses</tspan></text></g><g id="v-348"  label-idx="1" cursor="move" transform="matrix(1,0,0,1,1572.5,809.5)" style="cursor: default; opacity: 1;"><rect joint-selector="rect" id="v-352" fill="#ffffff" rx="3" ry="3"  width="0" height="0" transform="matrix(1,0,0,1,0,0)" display="none"></rect><text joint-selector="text" id="v-351" fill="#000000" font-size="14" text-anchor="middle" pointer-events="none"></text></g></g><g  display="none"></g><g  id="v-357" display="none"><g  id="v-345"><path  end="source" d="M 26 0 L 0 13 L 26 26 z"></path></g><g  id="v-346"><path  end="target" d="M 26 0 L 0 13 L 26 26 z"></path></g></g><g  id="v-356" display="none"><g  id="v-344" transform="translate(1720.0014282115424, 781.3380160996207) "><g  event="remove"><circle r="11"></circle><path transform="scale(.8) translate(-16, -16)" d="M24.778,21.419 19.276,15.917 24.777,10.415 21.949,7.585 16.447,13.087 10.945,7.585 8.117,10.415 13.618,15.917 8.116,21.419 10.946,24.248 16.447,18.746 21.948,24.248z"></path><title>Remove link.</title></g><g  event="link:options"><circle r="11" transform="translate(25)"></circle><path fill="white" transform="scale(.55) translate(29, -16)" d="M31.229,17.736c0.064-0.571,0.104-1.148,0.104-1.736s-0.04-1.166-0.104-1.737l-4.377-1.557c-0.218-0.716-0.504-1.401-0.851-2.05l1.993-4.192c-0.725-0.91-1.549-1.734-2.458-2.459l-4.193,1.994c-0.647-0.347-1.334-0.632-2.049-0.849l-1.558-4.378C17.165,0.708,16.588,0.667,16,0.667s-1.166,0.041-1.737,0.105L12.707,5.15c-0.716,0.217-1.401,0.502-2.05,0.849L6.464,4.005C5.554,4.73,4.73,5.554,4.005,6.464l1.994,4.192c-0.347,0.648-0.632,1.334-0.849,2.05l-4.378,1.557C0.708,14.834,0.667,15.412,0.667,16s0.041,1.165,0.105,1.736l4.378,1.558c0.217,0.715,0.502,1.401,0.849,2.049l-1.994,4.193c0.725,0.909,1.549,1.733,2.459,2.458l4.192-1.993c0.648,0.347,1.334,0.633,2.05,0.851l1.557,4.377c0.571,0.064,1.148,0.104,1.737,0.104c0.588,0,1.165-0.04,1.736-0.104l1.558-4.377c0.715-0.218,1.399-0.504,2.049-0.851l4.193,1.993c0.909-0.725,1.733-1.549,2.458-2.458l-1.993-4.193c0.347-0.647,0.633-1.334,0.851-2.049L31.229,17.736zM16,20.871c-2.69,0-4.872-2.182-4.872-4.871c0-2.69,2.182-4.872,4.872-4.872c2.689,0,4.871,2.182,4.871,4.872C20.871,18.689,18.689,20.871,16,20.871z"></path><title>Link options.</title></g></g></g></g><g   id="j_36" ><path  stroke="#707070" d="M 1159 475 L 1170 635" id="v-367" stroke-width="2" stroke-dasharray="30 30" fill="none" style="opacity: 1;"></path><path  fill="black" stroke="black" d="M 0 0 0 0" transform="matrix(0.06846394389867783,0.997653603553772,-0.997653603553772,0.06846394389867783,1158.72998046875,475)"></path><path  fill="#707070" stroke="#707070" d="M 20 0 L 0 10 L 20 20 z" id="v-369" transform="matrix(-0.06846421211957932,-0.9976535439491272,0.9976535439491272,-0.06846421211957932,1159.7335205078125,635.6846313476562)" style="opacity: 1;"></path><path  d="M 1159 475 L 1170 635" id="v-368" fill="none" style="cursor: default;"></path><g ><g id="v-361"  label-idx="0" cursor="move" transform="matrix(1,0,0,1,1164.5,555)" style="cursor: default; opacity: 1;"><rect joint-selector="rect" id="v-364" fill="#ffffff" rx="3" ry="3" pointer-events="none" width="53.900001525878906" height="33.999996185302734" transform="matrix(1,0,0,1,-27,-17)"></rect><text joint-selector="text" id="v-363" font-size="24px" xml:space="preserve" y="0.8em" fill="#707070" text-anchor="middle" pointer-events="none" font-family="Open Sans" font-weight="normal" transform="matrix(1,0,0,1,0,-10.199999809265137)"><tspan  dy="0">Uses</tspan></text></g><g id="v-362"  label-idx="1" cursor="move" transform="matrix(1,0,0,1,1154.5,582)" style="cursor: default; opacity: 1;"><rect joint-selector="rect" id="v-366" fill="#ffffff" rx="3" ry="3"  width="0" height="0" transform="matrix(1,0,0,1,0,0)" display="none"></rect><text joint-selector="text" id="v-365" fill="#000000" font-size="14" text-anchor="middle" pointer-events="none"></text></g></g><g  display="none"></g><g  id="v-371" display="none"><g  id="v-359"><path  end="source" d="M 26 0 L 0 13 L 26 26 z"></path></g><g  id="v-360"><path  end="target" d="M 26 0 L 0 13 L 26 26 z"></path></g></g><g  id="v-370" display="none"><g  id="v-358" transform="translate(1161.7435239247225, 514.9058025414158) "><g  event="remove"><circle r="11"></circle><path transform="scale(.8) translate(-16, -16)" d="M24.778,21.419 19.276,15.917 24.777,10.415 21.949,7.585 16.447,13.087 10.945,7.585 8.117,10.415 13.618,15.917 8.116,21.419 10.946,24.248 16.447,18.746 21.948,24.248z"></path><title>Remove link.</title></g><g  event="link:options"><circle r="11" transform="translate(25)"></circle><path fill="white" transform="scale(.55) translate(29, -16)" d="M31.229,17.736c0.064-0.571,0.104-1.148,0.104-1.736s-0.04-1.166-0.104-1.737l-4.377-1.557c-0.218-0.716-0.504-1.401-0.851-2.05l1.993-4.192c-0.725-0.91-1.549-1.734-2.458-2.459l-4.193,1.994c-0.647-0.347-1.334-0.632-2.049-0.849l-1.558-4.378C17.165,0.708,16.588,0.667,16,0.667s-1.166,0.041-1.737,0.105L12.707,5.15c-0.716,0.217-1.401,0.502-2.05,0.849L6.464,4.005C5.554,4.73,4.73,5.554,4.005,6.464l1.994,4.192c-0.347,0.648-0.632,1.334-0.849,2.05l-4.378,1.557C0.708,14.834,0.667,15.412,0.667,16s0.041,1.165,0.105,1.736l4.378,1.558c0.217,0.715,0.502,1.401,0.849,2.049l-1.994,4.193c0.725,0.909,1.549,1.733,2.459,2.458l4.192-1.993c0.648,0.347,1.334,0.633,2.05,0.851l1.557,4.377c0.571,0.064,1.148,0.104,1.737,0.104c0.588,0,1.165-0.04,1.736-0.104l1.558-4.377c0.715-0.218,1.399-0.504,2.049-0.851l4.193,1.993c0.909-0.725,1.733-1.549,2.458-2.458l-1.993-4.193c0.347-0.647,0.633-1.334,0.851-2.049L31.229,17.736zM16,20.871c-2.69,0-4.872-2.182-4.872-4.871c0-2.69,2.182-4.872,4.872-4.872c2.689,0,4.871,2.182,4.871,4.872C20.871,18.689,18.689,20.871,16,20.871z"></path><title>Link options.</title></g></g></g></g></g><g ></g><g ></g><g ></g></g></svg>